<svg id="Layer_1" data-name="Layer 1" xmlns="http://www.w3.org/2000/svg" viewBox="0 0 520 277"><defs><style>.cls-1{fill:#f2c811;}.cls-2{fill:none;}</style></defs><title>L</title><rect class="cls-1" x="-1" width="521" height="277"/><rect class="cls-2" x="-1" width="240.94" height="277"/><path d="M238.38,149.13q0,19.77,0,39.52a16.51,16.51,0,0,1-21.68,16.11c-4.06-1.22-8.08-2.55-12.11-3.87-2.62-.85-3.82-2.87-3.1-5.1s2.91-3.3,5.61-2.45c3.81,1.19,7.6,2.43,11.4,3.63,6.52,2.05,11.77-1.75,11.78-8.57q0-39.33,0-78.66c0-4.76-2.11-7.56-6.68-8.94Q165.16,83.22,106.7,65.66c-7.1-2.14-12.13,1.66-12.13,9.13q0,26.59,0,53.19c0,3.29-2.32,5.25-5.14,4.38a3.65,3.65,0,0,1-2.82-3.54c-.07-1.56,0-3.12,0-4.68,0-16.67.23-33.35-.08-50a16.81,16.81,0,0,1,21.89-16.35Q167.17,75.54,226,93.17c8.12,2.45,12.39,8.33,12.39,16.82Q238.4,129.57,238.38,149.13Z"/><path d="M169.76,166.22q0-21.83,0-43.64a9.32,9.32,0,0,1,5.51-8.87,9.69,9.69,0,0,1,10.6,1,9.23,9.23,0,0,1,3.88,6.77,20.1,20.1,0,0,1,.1,2q0,42.8,0,85.6c0,5.3-2.63,9.13-7.1,10.46a10,10,0,0,1-13-9.69C169.72,195.31,169.76,180.76,169.76,166.22Z"/><path d="M160.51,166.6c0,11.05,0,22.1,0,33.15a9.86,9.86,0,0,1-8.45,9.71,10.06,10.06,0,0,1-11.21-7,11.07,11.07,0,0,1-.42-3.33c0-21.66,0-43.33,0-65,0-7.68,7.06-12.52,13.91-9.72a9.78,9.78,0,0,1,6.17,9.4Q160.53,150.22,160.51,166.6Z"/><path d="M131.22,166.59q0,10.4,0,20.78c0,6.09-4.23,10.51-10,10.52s-10.14-4.36-10.15-10.42q-.06-21.06,0-42.13c0-6.06,4.35-10.44,10.15-10.43s10,4.44,10,10.53Q131.23,156,131.22,166.59Z"/><path d="M81.76,166.45c0-3.81,0-7.61,0-11.42a10.06,10.06,0,0,1,20.11-.42q.23,11.88,0,23.76a10.06,10.06,0,0,1-20.12-.32C81.74,174.18,81.76,170.31,81.76,166.45Z"/><path d="M327.86,32.93a14,14,0,0,1,4.36.61,8.29,8.29,0,0,1,3,1.66A6.33,6.33,0,0,1,337,37.69a8.34,8.34,0,0,1,.56,3.11,9.22,9.22,0,0,1-.57,3.3,6.77,6.77,0,0,1-1.77,2.58,8.35,8.35,0,0,1-3,1.67,13.5,13.5,0,0,1-4.31.61H325v8h-5.58V32.93Zm0,11.81a4.06,4.06,0,0,0,3.13-1,4.11,4.11,0,0,0,1-2.9,4.31,4.31,0,0,0-.25-1.51,2.91,2.91,0,0,0-.75-1.16,3.2,3.2,0,0,0-1.27-.75,5.49,5.49,0,0,0-1.82-.27H325v7.63Z"/><path d="M364,45a12.88,12.88,0,0,1-.9,4.85,11.72,11.72,0,0,1-2.53,3.91,11.43,11.43,0,0,1-3.94,2.6,14.39,14.39,0,0,1-10.23,0,11.61,11.61,0,0,1-4-2.6,11.74,11.74,0,0,1-2.54-3.91,13.55,13.55,0,0,1,0-9.71,11.7,11.7,0,0,1,2.54-3.9,11.88,11.88,0,0,1,4-2.59,14.32,14.32,0,0,1,10.23,0,11.72,11.72,0,0,1,3.94,2.6,11.57,11.57,0,0,1,2.53,3.9A12.9,12.9,0,0,1,364,45Zm-5.71,0a10.33,10.33,0,0,0-.46-3.21,6.73,6.73,0,0,0-1.33-2.42,5.78,5.78,0,0,0-2.12-1.52,7.22,7.22,0,0,0-2.86-.53,7.34,7.34,0,0,0-2.89.53,5.73,5.73,0,0,0-2.13,1.52,6.89,6.89,0,0,0-1.33,2.42,11.5,11.5,0,0,0,0,6.44,7,7,0,0,0,1.33,2.42,5.71,5.71,0,0,0,2.13,1.51,7.52,7.52,0,0,0,2.89.52,7.4,7.4,0,0,0,2.86-.52,5.75,5.75,0,0,0,2.12-1.51,6.82,6.82,0,0,0,1.33-2.42A10.41,10.41,0,0,0,358.28,45Z"/><path d="M399.44,32.93,392,57H387l-4.52-14.92c-.09-.23-.17-.48-.25-.76s-.15-.58-.23-.89l-.23.89c-.08.28-.16.53-.25.76L376.88,57h-5.06l-7.43-24.07h4.69a2.14,2.14,0,0,1,1.22.33,1.55,1.55,0,0,1,.63.88l3.31,12.55c.09.4.19.83.29,1.3s.2,1,.3,1.46a18.94,18.94,0,0,1,.73-2.76l3.89-12.55a1.72,1.72,0,0,1,.64-.83,1.89,1.89,0,0,1,1.18-.38h1.65a1.94,1.94,0,0,1,1.18.34,2.22,2.22,0,0,1,.67.87l3.87,12.55a18.62,18.62,0,0,1,.73,2.63c.08-.5.17-1,.27-1.4s.19-.84.29-1.23l3.3-12.55a1.57,1.57,0,0,1,.63-.84,2,2,0,0,1,1.19-.37Z"/><path d="M407.45,37.23v5.61H415V47h-7.57v5.74h9.88V57H401.84V32.93h15.49v4.3Z"/><path d="M440.45,57H435.4a2.14,2.14,0,0,1-2-1.06l-4-7a2,2,0,0,0-.63-.66,2,2,0,0,0-1-.2h-1.42V57h-5.58V32.93h7.82a16.05,16.05,0,0,1,4.46.54,8.36,8.36,0,0,1,3,1.5,5.53,5.53,0,0,1,1.69,2.26,7.36,7.36,0,0,1,.53,2.84,7.57,7.57,0,0,1-.31,2.21,6.85,6.85,0,0,1-2.44,3.5,7.66,7.66,0,0,1-2.07,1.14,5,5,0,0,1,1,.71,4.67,4.67,0,0,1,.86,1ZM428.59,44.25a5.79,5.79,0,0,0,1.94-.29,3.46,3.46,0,0,0,1.32-.8,3,3,0,0,0,.74-1.2,4.46,4.46,0,0,0,.23-1.48,3.12,3.12,0,0,0-1-2.48,4.83,4.83,0,0,0-3.2-.89h-2.24v7.14Z"/><path d="M459,32.93a16.66,16.66,0,0,1,4.24.47,8.15,8.15,0,0,1,2.86,1.3,4.9,4.9,0,0,1,1.61,2,6.83,6.83,0,0,1,.51,2.69A5.09,5.09,0,0,1,468,41a4.49,4.49,0,0,1-.72,1.41A5.82,5.82,0,0,1,466,43.6a8,8,0,0,1-1.87.95,6.6,6.6,0,0,1,3.52,1.86,4.85,4.85,0,0,1,1.14,3.34,6.85,6.85,0,0,1-.6,2.86,6.36,6.36,0,0,1-1.74,2.3,8.17,8.17,0,0,1-2.83,1.54,12.34,12.34,0,0,1-3.85.55h-9.61V32.93Zm-3.27,4.18v6h2.91a9.32,9.32,0,0,0,1.66-.13,3.36,3.36,0,0,0,1.27-.47,2.16,2.16,0,0,0,.79-.9,3.46,3.46,0,0,0,.27-1.46,4.19,4.19,0,0,0-.21-1.43,2,2,0,0,0-.66-.91,2.86,2.86,0,0,0-1.13-.5,7.74,7.74,0,0,0-1.63-.15Zm3.93,15.68a5.09,5.09,0,0,0,1.81-.28,2.9,2.9,0,0,0,1.1-.73,2.48,2.48,0,0,0,.54-1,4.35,4.35,0,0,0,.15-1.14,4,4,0,0,0-.17-1.19,2,2,0,0,0-.6-.89,2.89,2.89,0,0,0-1.11-.56,6.58,6.58,0,0,0-1.75-.2h-3.9v6Z"/><path d="M477.85,57h-5.62V32.93h5.62Z"/><path d="M329.71,69.43H324.6v14h-2.12v-14h-5.11V67.64h12.34Z"/><path d="M343.69,83.4H341.8a.93.93,0,0,1-.86-.45l-4.09-5.63a1.18,1.18,0,0,0-.4-.38,1.46,1.46,0,0,0-.67-.12h-1.62V83.4H332V67.64h4.45a9.86,9.86,0,0,1,2.59.3,4.88,4.88,0,0,1,1.8.87,3.69,3.69,0,0,1,1.05,1.38,4.6,4.6,0,0,1,.34,1.81,4.74,4.74,0,0,1-.26,1.57,4.38,4.38,0,0,1-.77,1.3,4.57,4.57,0,0,1-1.22,1,5.75,5.75,0,0,1-1.63.62,2.12,2.12,0,0,1,.7.67Zm-7.28-8.13a5.4,5.4,0,0,0,1.63-.22,3.47,3.47,0,0,0,1.19-.64,2.69,2.69,0,0,0,.72-1,3.22,3.22,0,0,0,.24-1.26,2.55,2.55,0,0,0-.92-2.13,4.55,4.55,0,0,0-2.78-.71h-2.33v6Z"/><path d="M358.64,83.4H357a.72.72,0,0,1-.46-.14.91.91,0,0,1-.27-.37l-1.47-3.8h-7.08l-1.47,3.8a.79.79,0,0,1-.25.36.73.73,0,0,1-.46.15h-1.65l6.3-15.76h2.15Zm-4.45-5.85-2.47-6.42c-.07-.19-.15-.41-.23-.66s-.16-.52-.23-.81a13.93,13.93,0,0,1-.48,1.49l-2.47,6.4Z"/><path d="M362.85,83.4h-2.13V67.64h2.13Z"/><path d="M379.65,67.64V83.4h-1.07a.87.87,0,0,1-.42-.09,1.12,1.12,0,0,1-.34-.29L368.7,71.13c0,.19,0,.37,0,.54s0,.35,0,.5V83.4h-1.87V67.64h1.34a.49.49,0,0,1,.17.06.42.42,0,0,1,.16.11l.16.18,9.12,11.87c0-.19,0-.38,0-.56s0-.35,0-.51V67.64Z"/><path d="M385.81,83.4h-2.14V67.64h2.14Z"/><path d="M402.6,67.64V83.4h-1.06a.94.94,0,0,1-.43-.09,1.23,1.23,0,0,1-.33-.29l-9.12-11.89q0,.28,0,.54c0,.18,0,.35,0,.5V83.4h-1.87V67.64h1.35a.49.49,0,0,1,.17.06.48.48,0,0,1,.15.11,1.49,1.49,0,0,1,.17.18l9.12,11.87c0-.19,0-.38,0-.56s0-.35,0-.51V67.64Z"/><path d="M419.43,75.82v6.05a8.75,8.75,0,0,1-2.53,1.28,9.87,9.87,0,0,1-2.95.43,9.58,9.58,0,0,1-3.44-.59,7.46,7.46,0,0,1-2.61-1.65,7.29,7.29,0,0,1-1.67-2.55,9.06,9.06,0,0,1-.58-3.27,9.16,9.16,0,0,1,.57-3.29,7.34,7.34,0,0,1,1.61-2.54A7.16,7.16,0,0,1,410.37,68a9.32,9.32,0,0,1,3.34-.58,10.4,10.4,0,0,1,1.74.14,8.11,8.11,0,0,1,1.49.39,8.23,8.23,0,0,1,1.26.63,8,8,0,0,1,1.09.83l-.6,1a.59.59,0,0,1-.87.18l-.61-.38a5.32,5.32,0,0,0-.83-.42,6.57,6.57,0,0,0-1.15-.35,8.06,8.06,0,0,0-1.58-.14,6.39,6.39,0,0,0-2.41.43A5.14,5.14,0,0,0,409.4,71a5.59,5.59,0,0,0-1.16,2,7.51,7.51,0,0,0-.41,2.58,7.86,7.86,0,0,0,.42,2.66,5.63,5.63,0,0,0,1.21,2,5.2,5.2,0,0,0,1.91,1.25,6.94,6.94,0,0,0,2.52.43,6.83,6.83,0,0,0,1.95-.25,7.75,7.75,0,0,0,1.67-.69V77.45h-2.45a.47.47,0,0,1-.34-.12.42.42,0,0,1-.13-.3V75.82Z"/><path d="M441.8,83.4h-1.91a1.43,1.43,0,0,1-.51-.08A1.06,1.06,0,0,1,439,83l-1.6-1.6A7.88,7.88,0,0,1,435,83a7.38,7.38,0,0,1-3,.59,5.06,5.06,0,0,1-1.72-.3,5,5,0,0,1-1.52-.86A4.35,4.35,0,0,1,427.7,81a4.26,4.26,0,0,1-.15-3.29,4.57,4.57,0,0,1,.72-1.27,5.45,5.45,0,0,1,1.09-1,7.32,7.32,0,0,1,1.37-.79,6.67,6.67,0,0,1-1-1.65,4.5,4.5,0,0,1-.32-1.66,4,4,0,0,1,.29-1.51,3.68,3.68,0,0,1,.85-1.22,4.06,4.06,0,0,1,1.33-.83,4.94,4.94,0,0,1,1.77-.3,4.23,4.23,0,0,1,1.58.28,4.15,4.15,0,0,1,1.23.74,3.44,3.44,0,0,1,.82,1.08,3.35,3.35,0,0,1,.35,1.27l-1.22.24c-.24.06-.42-.06-.54-.34a3,3,0,0,0-.25-.6,2.31,2.31,0,0,0-.44-.56,2.35,2.35,0,0,0-.65-.42,2.19,2.19,0,0,0-.88-.16,2.66,2.66,0,0,0-1,.18,2.16,2.16,0,0,0-.76.49,2,2,0,0,0-.48.73,2.51,2.51,0,0,0-.16.92,3,3,0,0,0,.09.74,3.17,3.17,0,0,0,.28.71,5,5,0,0,0,.49.74,9.51,9.51,0,0,0,.71.79l4.53,4.61a7.65,7.65,0,0,0,.67-1.56,8.25,8.25,0,0,0,.34-1.61.5.5,0,0,1,.13-.33.39.39,0,0,1,.31-.12H440a8,8,0,0,1-.39,2.48A8.92,8.92,0,0,1,438.5,80Zm-10.17-7.77a4.67,4.67,0,0,0-1.75,1.5,3.39,3.39,0,0,0-.59,1.91,2.92,2.92,0,0,0,.26,1.26,2.81,2.81,0,0,0,.7.92,2.9,2.9,0,0,0,1,.57,3.3,3.3,0,0,0,1.12.19,5.23,5.23,0,0,0,2.21-.45,5.68,5.68,0,0,0,1.73-1.21Z"/><path d="M330.23,106.75a.39.39,0,0,1,.31.15l.86.92a6.81,6.81,0,0,1-2.37,1.76,8,8,0,0,1-3.37.64,7.84,7.84,0,0,1-3.11-.6,6.72,6.72,0,0,1-2.38-1.66,7.69,7.69,0,0,1-1.54-2.57,9.68,9.68,0,0,1-.54-3.3,9.13,9.13,0,0,1,.57-3.29,7.53,7.53,0,0,1,1.59-2.58,7.06,7.06,0,0,1,2.46-1.67,8.09,8.09,0,0,1,3.16-.59,7.79,7.79,0,0,1,3,.54A7.45,7.45,0,0,1,331.16,96l-.71,1a.66.66,0,0,1-.18.19.47.47,0,0,1-.28.07.86.86,0,0,1-.49-.22,8.44,8.44,0,0,0-.75-.48,5.44,5.44,0,0,0-1.17-.48,6.4,6.4,0,0,0-4,.21,4.86,4.86,0,0,0-1.76,1.24,5.63,5.63,0,0,0-1.15,2,7.76,7.76,0,0,0-.41,2.63,7.61,7.61,0,0,0,.43,2.66,5.9,5.9,0,0,0,1.16,2,4.94,4.94,0,0,0,1.74,1.22,5.59,5.59,0,0,0,2.17.42,8.41,8.41,0,0,0,1.29-.08,4.74,4.74,0,0,0,1.95-.71,6.73,6.73,0,0,0,.83-.65A.57.57,0,0,1,330.23,106.75Z"/><path d="M343.71,108.29V110h-9.8V94.13h9.8v1.76h-7.65v5.28h6.19v1.69h-6.19v5.43Z"/><path d="M358.47,110h-1.91a.92.92,0,0,1-.86-.46l-4.13-5.68a1.21,1.21,0,0,0-.41-.38,1.43,1.43,0,0,0-.67-.12h-1.63V110h-2.14V94.13h4.49a9.93,9.93,0,0,1,2.61.31,5.07,5.07,0,0,1,1.82.88,3.67,3.67,0,0,1,1.06,1.39,4.7,4.7,0,0,1,.34,1.83,4.56,4.56,0,0,1-.27,1.58,4,4,0,0,1-.77,1.31,4.53,4.53,0,0,1-1.23,1,6.08,6.08,0,0,1-1.65.62,2.05,2.05,0,0,1,.71.67Zm-7.35-8.2a5.43,5.43,0,0,0,1.65-.23A3.43,3.43,0,0,0,354,101a2.67,2.67,0,0,0,.73-1,3.27,3.27,0,0,0,.24-1.27,2.55,2.55,0,0,0-.93-2.15,4.53,4.53,0,0,0-2.8-.72h-2.35v6Z"/><path d="M370.86,95.94h-5.15V110h-2.14V95.94h-5.16V94.13h12.45Z"/><path d="M375.37,110h-2.16V94.13h2.16Z"/><path d="M381.58,95.89v5.56h6.54v1.75h-6.54V110h-2.15V94.13h9.8v1.76Z"/><path d="M394.14,110H392V94.13h2.16Z"/><path d="M409.37,106.75a.42.42,0,0,1,.31.15l.85.92a6.81,6.81,0,0,1-2.37,1.76,8,8,0,0,1-3.37.64,7.84,7.84,0,0,1-3.11-.6A6.81,6.81,0,0,1,399.3,108a7.51,7.51,0,0,1-1.53-2.57,9.44,9.44,0,0,1-.55-3.3,9.13,9.13,0,0,1,.57-3.29,7.68,7.68,0,0,1,1.59-2.58,7.25,7.25,0,0,1,2.46-1.67A8.09,8.09,0,0,1,405,94a7.76,7.76,0,0,1,3,.54A7.34,7.34,0,0,1,410.29,96l-.71,1a.66.66,0,0,1-.18.19.47.47,0,0,1-.28.07.86.86,0,0,1-.49-.22,8.44,8.44,0,0,0-.75-.48,5.44,5.44,0,0,0-1.17-.48,6.4,6.4,0,0,0-4,.21A4.86,4.86,0,0,0,401,97.49a5.63,5.63,0,0,0-1.15,2,8,8,0,0,0-.41,2.63,7.61,7.61,0,0,0,.43,2.66,5.9,5.9,0,0,0,1.16,2,5,5,0,0,0,1.75,1.22,5.56,5.56,0,0,0,2.17.42,8.36,8.36,0,0,0,1.28-.08,4.74,4.74,0,0,0,2-.71,6.73,6.73,0,0,0,.83-.65A.57.57,0,0,1,409.37,106.75Z"/><path d="M426,110h-1.67a.74.74,0,0,1-.46-.14.91.91,0,0,1-.27-.37l-1.49-3.84h-7.13l-1.49,3.84a.76.76,0,0,1-.25.35.71.71,0,0,1-.47.16h-1.67l6.36-15.91h2.18Zm-4.48-5.91L419,97.66c-.08-.19-.15-.41-.24-.67s-.15-.53-.23-.81a10.1,10.1,0,0,1-.48,1.49l-2.49,6.46Z"/><path d="M437.25,95.94H432.1V110H430V95.94h-5.16V94.13h12.46Z"/><path d="M441.75,110H439.6V94.13h2.15Z"/><path d="M460.51,102.09a9.33,9.33,0,0,1-.56,3.28,7.5,7.5,0,0,1-1.6,2.57,7.1,7.1,0,0,1-2.48,1.67,8.83,8.83,0,0,1-6.4,0,7.1,7.1,0,0,1-2.48-1.67,7.48,7.48,0,0,1-1.59-2.57,9.72,9.72,0,0,1,0-6.56A7.58,7.58,0,0,1,447,96.24a7.26,7.26,0,0,1,2.48-1.68,8.83,8.83,0,0,1,6.4,0,7.26,7.26,0,0,1,2.48,1.68,7.6,7.6,0,0,1,1.6,2.57A9.37,9.37,0,0,1,460.51,102.09Zm-2.21,0a8.31,8.31,0,0,0-.39-2.63,5.61,5.61,0,0,0-1.14-2A5.06,5.06,0,0,0,455,96.25a6.24,6.24,0,0,0-2.33-.43,6.15,6.15,0,0,0-2.32.43,5.14,5.14,0,0,0-1.79,1.24,5.45,5.45,0,0,0-1.13,2,8.85,8.85,0,0,0,0,5.26,5.4,5.4,0,0,0,1.13,2,4.86,4.86,0,0,0,1.79,1.23,6,6,0,0,0,2.32.43,6,6,0,0,0,2.33-.43,4.79,4.79,0,0,0,1.77-1.23,5.57,5.57,0,0,0,1.14-2A8.26,8.26,0,0,0,458.3,102.09Z"/><path d="M476.48,94.13V110H475.4A.94.94,0,0,1,475,110a1.15,1.15,0,0,1-.34-.3l-9.2-12a5.21,5.21,0,0,1,0,.55c0,.18,0,.34,0,.5V110h-1.89V94.13h1.11l.24,0a.48.48,0,0,1,.18.06.66.66,0,0,1,.16.11l.16.18,9.2,12c0-.2,0-.38,0-.56a4.7,4.7,0,0,1,0-.52V94.13Z"/></svg>