<svg id="Layer_1" data-name="Layer 1" xmlns="http://www.w3.org/2000/svg" viewBox="0 0 355 189.11"><defs><style>.cls-1{fill:#4eaed8;}.cls-2{fill:#0c3656;}.cls-3{fill:#454c51;}.cls-4{fill:#fff;}.cls-5{fill:#e7e7e7;}.cls-6{fill:#84d4f6;}.cls-7{fill:#505659;}.cls-8{fill:#6d6e6e;}.cls-9{fill:#adadad;}.cls-10{fill:#b4e3f9;}.cls-11{fill:#f27671;}</style></defs><title>Informatics-L </title><rect class="cls-1" y="-0.17" width="355" height="189.46"/><rect class="cls-2" x="47.52" y="70.52" width="1.09" height="32.84"/><rect class="cls-2" x="24.65" y="70.52" width="23.96" height="1.09"/><rect class="cls-2" x="24.65" y="39.74" width="1.08" height="31.86"/><path class="cls-2" d="M27,39.74a1.81,1.81,0,1,1-1.81-1.81A1.81,1.81,0,0,1,27,39.74Z"/><rect class="cls-2" x="54.12" y="63.74" width="1.09" height="39.58"/><rect class="cls-2" x="31.25" y="63.74" width="23.96" height="1.08"/><rect class="cls-2" x="31.25" y="56.98" width="1.08" height="7.85"/><path class="cls-2" d="M33.6,57a1.81,1.81,0,1,1-1.81-1.81A1.81,1.81,0,0,1,33.6,57Z"/><rect class="cls-2" x="40.32" y="47.24" width="1.09" height="56.12"/><path class="cls-2" d="M42.69,47.24a1.82,1.82,0,1,1-1.82-1.81A1.82,1.82,0,0,1,42.69,47.24Z"/><rect class="cls-2" x="65.44" y="41.44" width="1.08" height="61.88"/><path class="cls-2" d="M67.8,41.44A1.82,1.82,0,1,1,66,39.62,1.81,1.81,0,0,1,67.8,41.44Z"/><rect class="cls-2" x="81.27" y="41.44" width="1.09" height="18.75"/><rect class="cls-2" x="74.95" y="59.1" width="1.09" height="44.22"/><rect class="cls-2" x="74.95" y="59.1" width="7.41" height="1.08"/><path class="cls-2" d="M83.63,41.44a1.82,1.82,0,1,1-1.81-1.82A1.81,1.81,0,0,1,83.63,41.44Z"/><rect class="cls-2" x="59.3" y="73.49" width="30" height="1.09"/><rect class="cls-2" x="88.21" y="49.51" width="1.08" height="25.07"/><rect class="cls-2" x="59.3" y="73.49" width="1.09" height="29.83"/><path class="cls-2" d="M90.57,49.51a1.82,1.82,0,1,1-1.82-1.81A1.81,1.81,0,0,1,90.57,49.51Z"/><rect class="cls-2" x="81.27" y="63.74" width="1.09" height="39.58"/><rect class="cls-2" x="81.27" y="63.74" width="19.64" height="1.08"/><rect class="cls-2" x="99.82" y="46.28" width="1.08" height="18.55"/><path class="cls-2" d="M102.18,46.28a1.82,1.82,0,1,1-1.81-1.82A1.81,1.81,0,0,1,102.18,46.28Z"/><rect class="cls-2" x="94.34" y="70.47" width="1.09" height="32.84"/><rect class="cls-2" x="94.34" y="70.47" width="23.62" height="1.08"/><path class="cls-2" d="M119.83,71.06A1.81,1.81,0,1,1,118,69.25,1.82,1.82,0,0,1,119.83,71.06Z"/><rect class="cls-2" x="107.73" y="53.14" width="1.09" height="50.18"/><rect class="cls-2" x="107.73" y="53.14" width="20.58" height="1.09"/><circle class="cls-2" cx="128.31" cy="53.69" r="1.81"/><rect class="cls-2" x="101.59" y="76.6" width="1.08" height="26.72"/><rect class="cls-2" x="101.59" y="76.6" width="31.12" height="1.08"/><rect class="cls-2" x="131.63" y="67.02" width="1.09" height="10.66"/><path class="cls-2" d="M134,67a1.82,1.82,0,1,1-1.82-1.81A1.83,1.83,0,0,1,134,67Z"/><rect class="cls-2" x="123.17" y="43.16" width="1.09" height="60.16"/><path class="cls-2" d="M125.53,43.16a1.82,1.82,0,1,1-1.82-1.82A1.82,1.82,0,0,1,125.53,43.16Z"/><rect class="cls-2" x="115.31" y="84.55" width="1.09" height="18.77"/><rect class="cls-2" x="115.31" y="84.55" width="21.77" height="1.09"/><rect class="cls-2" x="135.99" y="39.14" width="1.09" height="46.5"/><path class="cls-2" d="M138.35,39.14a1.82,1.82,0,1,1-1.82-1.81A1.81,1.81,0,0,1,138.35,39.14Z"/><path class="cls-3" d="M142.57,169.72a5.16,5.16,0,0,1-5.15,5.14H26.52a5.14,5.14,0,0,1-5.14-5.14v-.91H142.57Z"/><path class="cls-3" d="M131.37,165.54a3.26,3.26,0,0,1-3.27,3.27H35.85a3.26,3.26,0,0,1-2.32-.95,3.3,3.3,0,0,1-1-2.32V106.59a3.26,3.26,0,0,1,3.27-3.27H128.1a3.28,3.28,0,0,1,3.27,3.27Z"/><rect class="cls-4" x="37.72" y="108.46" width="88.51" height="55.21"/><rect class="cls-5" x="70.44" y="168.81" width="23.06" height="2.04"/><rect class="cls-5" x="32.58" y="171.53" width="5.14" height="0.6"/><rect class="cls-6" x="32.58" y="171.53" width="2.57" height="0.6"/><path class="cls-7" d="M83.08,105.89A1.11,1.11,0,1,1,82,104.78,1.11,1.11,0,0,1,83.08,105.89Z"/><rect class="cls-5" x="37.72" y="108.46" width="88.51" height="6.1"/><path class="cls-4" d="M42.65,111.51a.89.89,0,1,1-.89-.89A.89.89,0,0,1,42.65,111.51Z"/><path class="cls-4" d="M46.69,111.51a.88.88,0,0,1-.88.89.89.89,0,1,1,0-1.78A.88.88,0,0,1,46.69,111.51Z"/><path class="cls-4" d="M50.74,111.51a.89.89,0,1,1-.89-.89A.89.89,0,0,1,50.74,111.51Z"/><rect class="cls-4" x="55.45" y="110.32" width="66.08" height="2.37" rx="0.96" ry="0.96"/><rect class="cls-8" x="77.36" y="121.5" width="9.13" height="0.26" transform="translate(-62.01 93.56) rotate(-45)"/><rect class="cls-8" x="85.07" y="118.31" width="11.88" height="0.26"/><path class="cls-8" d="M97.85,118.44a.91.91,0,1,1-.91-.91A.91.91,0,0,1,97.85,118.44Z"/><rect class="cls-8" x="84.59" y="144.7" width="0.26" height="9.13" transform="translate(-80.71 103.56) rotate(-44.98)"/><rect class="cls-8" x="87.86" y="152.32" width="11.87" height="0.26"/><path class="cls-8" d="M100.65,152.46a.92.92,0,1,1-.92-.92A.92.92,0,0,1,100.65,152.46Z"/><rect class="cls-8" x="56.7" y="150.09" width="9.13" height="0.26" transform="translate(-88.25 87.26) rotate(-44.98)"/><rect class="cls-8" x="46.26" y="153.28" width="11.87" height="0.26"/><path class="cls-8" d="M45.34,153.41a.92.92,0,1,0,.92-.91A.92.92,0,0,0,45.34,153.41Z"/><rect class="cls-8" x="50.11" y="122.42" width="13.7" height="0.26"/><path class="cls-8" d="M49.19,122.55a.92.92,0,1,0,.92-.92A.92.92,0,0,0,49.19,122.55Z"/><path class="cls-9" d="M69.76,136.37,64.19,125a12.55,12.55,0,0,0-7,13.18,12.7,12.7,0,0,0,14.33,10.8Z"/><path class="cls-10" d="M84.18,136.37a14.42,14.42,0,0,0-14.42-14.43v14.43l12.74,6.77A14.29,14.29,0,0,0,84.18,136.37Z"/><path class="cls-3" d="M69.76,136.37V117.46h0a18.78,18.78,0,0,0-8.3,1.91Z"/><path class="cls-11" d="M84,143.92l-14.19-7.55L72,152.29A16.06,16.06,0,0,0,84,143.92Z"/><rect class="cls-3" x="105.74" y="119.55" width="16.33" height="1.09"/><rect class="cls-10" x="105.74" y="124.95" width="16.33" height="1.09"/><rect class="cls-11" x="105.74" y="130.36" width="16.33" height="1.09"/><rect class="cls-9" x="105.74" y="135.78" width="16.33" height="1.08"/><path class="cls-4" d="M163.6,79.25h-2.88V66.89h2.88Z"/><path class="cls-4" d="M167.72,66.91A.86.86,0,0,1,168,67a.59.59,0,0,1,.19.13,1.64,1.64,0,0,1,.21.23l5.88,7.42c0-.23,0-.46-.06-.69s0-.43,0-.63V66.89h2.53V79.25h-1.5a1.56,1.56,0,0,1-.56-.1,1.26,1.26,0,0,1-.44-.38l-5.83-7.36c0,.22,0,.43,0,.63s0,.4,0,.58v6.63h-2.53V66.89h1.51A1.52,1.52,0,0,1,167.72,66.91Z"/><path class="cls-4" d="M186.68,66.89v2.2h-5.07v3.14h4.22v2.21h-4.22v4.81h-2.89V66.89Z"/><path class="cls-4" d="M200.37,73.06a6.62,6.62,0,0,1-.46,2.5,5.9,5.9,0,0,1-3.33,3.34,7.42,7.42,0,0,1-5.25,0,5.94,5.94,0,0,1-2-1.34,5.79,5.79,0,0,1-1.31-2,7,7,0,0,1,0-5,5.79,5.79,0,0,1,1.31-2,5.92,5.92,0,0,1,2-1.33,6.77,6.77,0,0,1,2.63-.49,6.91,6.91,0,0,1,2.62.49,6.09,6.09,0,0,1,2,1.34,5.91,5.91,0,0,1,1.3,2A6.59,6.59,0,0,1,200.37,73.06Zm-2.93,0a5.3,5.3,0,0,0-.24-1.65,3.56,3.56,0,0,0-.69-1.24,2.87,2.87,0,0,0-1.09-.78,3.73,3.73,0,0,0-1.46-.27,3.79,3.79,0,0,0-1.48.27,2.91,2.91,0,0,0-1.1.78,3.71,3.71,0,0,0-.68,1.24,5.83,5.83,0,0,0,0,3.31,3.66,3.66,0,0,0,.68,1.25,2.88,2.88,0,0,0,1.1.77A3.79,3.79,0,0,0,194,77a3.73,3.73,0,0,0,1.46-.27,2.85,2.85,0,0,0,1.09-.77,3.52,3.52,0,0,0,.69-1.25A5.32,5.32,0,0,0,197.44,73.06Z"/><path class="cls-4" d="M204.61,74.68v4.57h-2.87V66.89h4a8.38,8.38,0,0,1,2.28.27,4.41,4.41,0,0,1,1.55.77,3.14,3.14,0,0,1,.87,1.16,3.91,3.91,0,0,1,.27,1.46,4.19,4.19,0,0,1-.16,1.14,3.5,3.5,0,0,1-.48,1,4.27,4.27,0,0,1-.78.81,4.07,4.07,0,0,1-1.07.58,3.17,3.17,0,0,1,.54.36,2.05,2.05,0,0,1,.44.52l2.63,4.3h-2.6a1.09,1.09,0,0,1-1-.54l-2.06-3.59a.81.81,0,0,0-.32-.34,1,1,0,0,0-.51-.1Zm0-2h1.16a2.87,2.87,0,0,0,1-.15,1.77,1.77,0,0,0,.68-.41,1.65,1.65,0,0,0,.38-.62,2.27,2.27,0,0,0,.12-.75,1.62,1.62,0,0,0-.53-1.28,2.51,2.51,0,0,0-1.64-.45h-1.16Z"/><path class="cls-4" d="M219.67,74.27c.11.23.21.47.3.71.1-.25.2-.49.31-.72s.22-.47.33-.69l3.17-6.25a1.08,1.08,0,0,1,.18-.25.53.53,0,0,1,.2-.13.62.62,0,0,1,.25,0h2.51V79.25h-2.53V72.14c0-.34,0-.72.05-1.12l-3.27,6.35a1.09,1.09,0,0,1-1,.61h-.39a1.09,1.09,0,0,1-1-.61L215.49,71c0,.2,0,.4,0,.59s0,.38,0,.54v7.11H213V66.9h2.51a.66.66,0,0,1,.25,0,.53.53,0,0,1,.2.13,1.08,1.08,0,0,1,.18.25l3.18,6.28C219.46,73.81,219.57,74,219.67,74.27Z"/><path class="cls-4" d="M240.46,79.25h-2.22a1,1,0,0,1-.62-.18.85.85,0,0,1-.33-.44l-.73-2.16h-4.7l-.73,2.16a1,1,0,0,1-.33.43,1,1,0,0,1-.6.19H228l4.78-12.36h2.94Zm-7.94-4.73h3.38l-1.14-3.38c-.07-.22-.16-.47-.26-.76s-.2-.61-.29-.95c-.09.35-.19.67-.28,1s-.19.55-.27.77Z"/><path class="cls-4" d="M249.08,66.89v2.27H245.6V79.25h-2.87V69.16h-3.47V66.89Z"/><path class="cls-4" d="M253.41,79.25h-2.89V66.89h2.89Z"/><path class="cls-4" d="M264,76.05a.52.52,0,0,1,.21,0,.54.54,0,0,1,.19.13l1.14,1.2a4.72,4.72,0,0,1-1.87,1.47,7.25,7.25,0,0,1-5.19,0,5.57,5.57,0,0,1-1.89-1.33,5.81,5.81,0,0,1-1.19-2,7.32,7.32,0,0,1-.42-2.52,6.6,6.6,0,0,1,.48-2.54,5.91,5.91,0,0,1,3.37-3.3,7.1,7.1,0,0,1,2.62-.47,6.13,6.13,0,0,1,1.31.13,5.91,5.91,0,0,1,1.15.34,5.35,5.35,0,0,1,1,.51,4.81,4.81,0,0,1,.8.67l-1,1.3a.88.88,0,0,1-.22.21.52.52,0,0,1-.35.1.57.57,0,0,1-.29-.07l-.29-.16a3.37,3.37,0,0,0-.34-.21,2.45,2.45,0,0,0-.43-.22,3.7,3.7,0,0,0-.58-.16,3.74,3.74,0,0,0-.79-.07,3.46,3.46,0,0,0-1.42.28,3.11,3.11,0,0,0-1.11.78,3.66,3.66,0,0,0-.72,1.25,4.89,4.89,0,0,0-.26,1.63,5.13,5.13,0,0,0,.26,1.69,3.87,3.87,0,0,0,.7,1.25,3.09,3.09,0,0,0,2.31,1c.26,0,.5,0,.72,0a3.41,3.41,0,0,0,.59-.13,3.22,3.22,0,0,0,.53-.25,3.18,3.18,0,0,0,.51-.36.64.64,0,0,1,.22-.14A.53.53,0,0,1,264,76.05Z"/><path class="cls-4" d="M278.35,79.25h-2.23a1,1,0,0,1-.61-.18.93.93,0,0,1-.34-.44l-.73-2.16h-4.7L269,78.63a1,1,0,0,1-.34.43.92.92,0,0,1-.6.19h-2.24l4.79-12.36h2.93Zm-7.94-4.73h3.37l-1.13-3.38c-.08-.22-.16-.47-.26-.76s-.2-.61-.3-.95c-.09.35-.18.67-.28,1s-.18.55-.27.77Z"/><path class="cls-4" d="M163.33,95.48v4.13h-2.86V87.25h4.36a7.09,7.09,0,0,1,2.24.31,4.22,4.22,0,0,1,1.54.85,3.25,3.25,0,0,1,.9,1.28,4.42,4.42,0,0,1,.29,1.6,4.62,4.62,0,0,1-.3,1.69,3.4,3.4,0,0,1-.91,1.33,4.35,4.35,0,0,1-1.55.86,7.23,7.23,0,0,1-2.21.31Zm0-2.17h1.5a1.81,1.81,0,0,0,2.1-2,2.16,2.16,0,0,0-.13-.78,1.47,1.47,0,0,0-.38-.59,1.73,1.73,0,0,0-.66-.39,2.84,2.84,0,0,0-.93-.14h-1.5Z"/><path class="cls-4" d="M183.49,93.42a6.82,6.82,0,0,1-.46,2.5,6,6,0,0,1-3.33,3.34,7.42,7.42,0,0,1-5.25,0,6,6,0,0,1-2-1.34,5.91,5.91,0,0,1-1.3-2,7,7,0,0,1,0-5,5.83,5.83,0,0,1,3.34-3.33,6.74,6.74,0,0,1,2.63-.49,6.91,6.91,0,0,1,2.62.49,6,6,0,0,1,2,1.34,5.94,5.94,0,0,1,1.31,2A6.79,6.79,0,0,1,183.49,93.42Zm-2.94,0a5.62,5.62,0,0,0-.23-1.65,3.56,3.56,0,0,0-.69-1.24,2.87,2.87,0,0,0-1.09-.78,3.76,3.76,0,0,0-1.46-.27,3.88,3.88,0,0,0-1.49.27,3,3,0,0,0-1.09.78,3.54,3.54,0,0,0-.68,1.24,5.83,5.83,0,0,0,0,3.31,3.5,3.5,0,0,0,.68,1.25,3,3,0,0,0,1.09.77,3.88,3.88,0,0,0,1.49.27,3.76,3.76,0,0,0,1.46-.27,3,3,0,0,0,1.09-.77,3.52,3.52,0,0,0,.69-1.25A5.64,5.64,0,0,0,180.55,93.42Z"/><path class="cls-4" d="M183.93,87.25h2.41a1,1,0,0,1,.62.17.75.75,0,0,1,.33.45l1.7,6.44c0,.21.11.44.17.68s.09.48.12.74c.06-.26.12-.51.19-.75s.13-.46.19-.67l2-6.44a.92.92,0,0,1,.32-.43,1,1,0,0,1,.61-.19h.85a1,1,0,0,1,.61.16.88.88,0,0,1,.34.46l2,6.44.2.64c.07.22.12.46.18.71,0-.24.09-.48.14-.71s.09-.44.14-.64l1.7-6.44a.84.84,0,0,1,.32-.44,1,1,0,0,1,.61-.18h2.26l-3.82,12.36h-2.59L193.19,92l-.12-.39-.12-.45c0,.16-.08.31-.13.45s-.08.27-.12.39l-2.36,7.66h-2.59Z"/><path class="cls-4" d="M211,87.25v2.2h-5.07v2.89h3.88v2.12h-3.88V97.4H211v2.21h-8V87.25Z"/><path class="cls-4" d="M215.49,95v4.57h-2.87V87.25h4a8.46,8.46,0,0,1,2.29.27,4.36,4.36,0,0,1,1.54.77,2.94,2.94,0,0,1,.87,1.16,4.11,4.11,0,0,1,.11,2.6,3.5,3.5,0,0,1-.48,1,3.73,3.73,0,0,1-.78.81,4,4,0,0,1-1.06.58,2.75,2.75,0,0,1,.53.36,1.87,1.87,0,0,1,.44.52l2.63,4.3h-2.6a1.1,1.1,0,0,1-1-.54l-2-3.59a.88.88,0,0,0-.32-.34,1,1,0,0,0-.51-.1Zm0-2h1.15a3,3,0,0,0,1-.15,1.85,1.85,0,0,0,.67-.41,1.53,1.53,0,0,0,.38-.62,2.27,2.27,0,0,0,.12-.75,1.62,1.62,0,0,0-.53-1.28,2.49,2.49,0,0,0-1.64-.46h-1.15Z"/><path class="cls-4" d="M231.78,96.41a.52.52,0,0,1,.21,0,.54.54,0,0,1,.19.13l1.14,1.2a4.72,4.72,0,0,1-1.87,1.47,6.58,6.58,0,0,1-2.66.49,6.38,6.38,0,0,1-2.53-.48,5.41,5.41,0,0,1-1.89-1.32,6,6,0,0,1-1.19-2,7.32,7.32,0,0,1-.41-2.52,6.6,6.6,0,0,1,.47-2.54,5.94,5.94,0,0,1,1.33-2,6,6,0,0,1,2-1.31,7.1,7.1,0,0,1,2.62-.47,6.13,6.13,0,0,1,1.31.13,6.69,6.69,0,0,1,1.15.33,5.69,5.69,0,0,1,1,.52,4.81,4.81,0,0,1,.8.67l-1,1.3a.88.88,0,0,1-.22.21.52.52,0,0,1-.35.1.57.57,0,0,1-.29-.07l-.29-.16-.33-.21a3,3,0,0,0-.44-.22,3.42,3.42,0,0,0-.58-.16,3.74,3.74,0,0,0-.79-.07,3.46,3.46,0,0,0-1.42.28,3.11,3.11,0,0,0-1.11.78,3.66,3.66,0,0,0-.72,1.25,4.89,4.89,0,0,0-.26,1.63,5.13,5.13,0,0,0,.26,1.69,3.87,3.87,0,0,0,.7,1.25,3.09,3.09,0,0,0,2.31,1c.27,0,.5,0,.72,0a3.75,3.75,0,0,0,.6-.13,3.54,3.54,0,0,0,.52-.25,3.18,3.18,0,0,0,.51-.36.64.64,0,0,1,.22-.14A.53.53,0,0,1,231.78,96.41Z"/><path class="cls-4" d="M242.58,87.25v2.2h-5.07v2.89h3.88v2.12h-3.88V97.4h5.07v2.21h-8V87.25Z"/><path class="cls-4" d="M246,87.27a.7.7,0,0,1,.23.06.63.63,0,0,1,.2.13,2.62,2.62,0,0,1,.21.23l5.87,7.42c0-.24,0-.47,0-.69s0-.43,0-.63V87.25H255V99.61h-1.49a1.52,1.52,0,0,1-.56-.1,1.26,1.26,0,0,1-.44-.38l-5.83-7.36c0,.22,0,.43,0,.63s0,.4,0,.58v6.63h-2.53V87.25h1.51A1.37,1.37,0,0,1,246,87.27Z"/><path class="cls-4" d="M266,87.25v2.27h-3.48V99.61h-2.86V89.52h-3.48V87.25Z"/><path class="cls-4" d="M275.16,87.25v2.2h-5.08v2.89H274v2.12h-3.89V97.4h5.08v2.21h-8V87.25Z"/><path class="cls-4" d="M279.65,95v4.57h-2.86V87.25h4a8.38,8.38,0,0,1,2.28.27,4.41,4.41,0,0,1,1.55.77,3,3,0,0,1,.87,1.16,3.91,3.91,0,0,1,.27,1.46,4.24,4.24,0,0,1-.16,1.14,3.5,3.5,0,0,1-.48,1,3.73,3.73,0,0,1-.78.81,4.07,4.07,0,0,1-1.07.58,3.17,3.17,0,0,1,.54.36,2.05,2.05,0,0,1,.44.52l2.63,4.3h-2.6a1.1,1.1,0,0,1-1-.54l-2.06-3.59a.86.86,0,0,0-.31-.34,1.09,1.09,0,0,0-.52-.1Zm0-2h1.16a2.87,2.87,0,0,0,1-.15,1.9,1.9,0,0,0,.68-.41,1.65,1.65,0,0,0,.38-.62,2.27,2.27,0,0,0,.12-.75,1.62,1.62,0,0,0-.53-1.28,2.51,2.51,0,0,0-1.64-.46h-1.16Z"/><path class="cls-4" d="M292.46,97.71h2.38V91.47c0-.3,0-.62,0-1l-1.4,1.17a.91.91,0,0,1-.27.15.85.85,0,0,1-.26,0,.77.77,0,0,1-.4-.1.67.67,0,0,1-.25-.21l-.84-1.1,3.86-3.23h2.17V97.71h2v1.9h-7Z"/><path class="cls-4" d="M309.67,93.42a10.12,10.12,0,0,1-.35,2.81,5.76,5.76,0,0,1-1,2,3.83,3.83,0,0,1-1.45,1.16,4.35,4.35,0,0,1-1.83.38,4.24,4.24,0,0,1-1.82-.38,3.83,3.83,0,0,1-1.45-1.16,5.74,5.74,0,0,1-.95-2,11.42,11.42,0,0,1,0-5.61,5.65,5.65,0,0,1,.95-2,3.83,3.83,0,0,1,1.45-1.16,4.39,4.39,0,0,1,1.82-.38,4.51,4.51,0,0,1,1.83.38,3.83,3.83,0,0,1,1.45,1.16,5.67,5.67,0,0,1,1,2A10,10,0,0,1,309.67,93.42Zm-2.72,0a11.07,11.07,0,0,0-.16-2.1,4.33,4.33,0,0,0-.43-1.28,1.52,1.52,0,0,0-.61-.64,1.41,1.41,0,0,0-.68-.18,1.41,1.41,0,0,0-1.28.82,4.37,4.37,0,0,0-.41,1.28,13.93,13.93,0,0,0,0,4.21,4.37,4.37,0,0,0,.41,1.28,1.52,1.52,0,0,0,.59.65,1.59,1.59,0,0,0,.69.17,1.52,1.52,0,0,0,.68-.17,1.55,1.55,0,0,0,.61-.65,4.33,4.33,0,0,0,.43-1.28A11,11,0,0,0,307,93.42Z"/><path class="cls-4" d="M171.46,113.89a6.81,6.81,0,0,1-.43,2.49,5.58,5.58,0,0,1-1.22,1.92,5.47,5.47,0,0,1-1.9,1.23,6.58,6.58,0,0,1-2.44.44h-4.55V107.81h4.55a6.58,6.58,0,0,1,2.44.44,5.35,5.35,0,0,1,1.9,1.24,5.58,5.58,0,0,1,1.22,1.92A6.8,6.8,0,0,1,171.46,113.89Zm-1.69,0a6.23,6.23,0,0,0-.3-2,4.37,4.37,0,0,0-.87-1.49,3.51,3.51,0,0,0-1.36-.93,4.58,4.58,0,0,0-1.77-.33h-2.89v9.5h2.89a4.58,4.58,0,0,0,1.77-.33,3.6,3.6,0,0,0,1.36-.92,4.47,4.47,0,0,0,.87-1.49A6.25,6.25,0,0,0,169.77,113.89Z"/><path class="cls-4" d="M181.19,107.81v1.34h-5.84v4h4.73v1.29h-4.73v4.15h5.84V120H173.7V107.81Z"/><path class="cls-4" d="M182.15,107.81h1.31a.57.57,0,0,1,.36.11.69.69,0,0,1,.2.28l3.44,8.58a6.55,6.55,0,0,1,.22.63c.06.22.12.46.19.7,0-.24.1-.48.16-.7a4.65,4.65,0,0,1,.21-.63l3.42-8.58a.79.79,0,0,1,.2-.26.52.52,0,0,1,.36-.13h1.32L188.59,120H187.1Z"/><path class="cls-4" d="M202.58,107.81v1.34h-5.83v4h4.72v1.29h-4.72v4.15h5.83V120h-7.49V107.81Z"/><path class="cls-4" d="M206.6,118.59h5.26V120H205V107.81h1.65Z"/><path class="cls-4" d="M224.28,113.89a7,7,0,0,1-.43,2.51,5.61,5.61,0,0,1-1.22,2,5.45,5.45,0,0,1-1.9,1.28,6.73,6.73,0,0,1-4.89,0,5.5,5.5,0,0,1-1.89-1.28,5.76,5.76,0,0,1-1.22-2,7.51,7.51,0,0,1,0-5,5.9,5.9,0,0,1,1.22-2,5.67,5.67,0,0,1,1.89-1.29,6.87,6.87,0,0,1,4.89,0,5.61,5.61,0,0,1,1.9,1.29,5.75,5.75,0,0,1,1.22,2A6.94,6.94,0,0,1,224.28,113.89Zm-1.68,0a6.33,6.33,0,0,0-.31-2,4.12,4.12,0,0,0-.87-1.5,3.72,3.72,0,0,0-1.35-.95,5,5,0,0,0-3.56,0,3.84,3.84,0,0,0-1.36.95,4.42,4.42,0,0,0-.87,1.5,6.33,6.33,0,0,0-.3,2,6.25,6.25,0,0,0,.3,2,4.42,4.42,0,0,0,.87,1.5,3.69,3.69,0,0,0,1.36.94,5,5,0,0,0,3.56,0,3.58,3.58,0,0,0,1.35-.94,4.12,4.12,0,0,0,.87-1.5A6.24,6.24,0,0,0,222.6,113.89Z"/><path class="cls-4" d="M228.34,115.42V120H226.7V107.81h3.59a6.7,6.7,0,0,1,2,.27,3.88,3.88,0,0,1,1.41.76,3,3,0,0,1,.83,1.19,4,4,0,0,1,.28,1.55,3.93,3.93,0,0,1-.3,1.55,3.38,3.38,0,0,1-.87,1.21,4,4,0,0,1-1.42.8,6.05,6.05,0,0,1-1.94.28Zm0-1.3h1.95a3.89,3.89,0,0,0,1.24-.19,2.78,2.78,0,0,0,.91-.52,2.34,2.34,0,0,0,.55-.8,2.9,2.9,0,0,0,.18-1,2.36,2.36,0,0,0-.71-1.82,3.16,3.16,0,0,0-2.17-.65h-1.95Z"/><path class="cls-4" d="M244.39,107.81v1.34h-5.84v4h4.73v1.29h-4.73v4.15h5.84V120H236.9V107.81Z"/><path class="cls-4" d="M248.56,114.9V120h-1.63V107.81h3.43a7.28,7.28,0,0,1,2,.24,3.75,3.75,0,0,1,1.39.67,2.6,2.6,0,0,1,.81,1.06,3.53,3.53,0,0,1,.26,1.4,3.36,3.36,0,0,1-.2,1.2,3.19,3.19,0,0,1-.59,1,3.53,3.53,0,0,1-.94.76,4.39,4.39,0,0,1-1.26.47,1.89,1.89,0,0,1,.54.52l3.55,4.83h-1.46a.72.72,0,0,1-.66-.35l-3.16-4.34a.88.88,0,0,0-.31-.3,1.29,1.29,0,0,0-.51-.08Zm0-1.2h1.72a4.39,4.39,0,0,0,1.27-.17,2.54,2.54,0,0,0,.92-.5,2,2,0,0,0,.55-.76,2.37,2.37,0,0,0,.19-1,1.93,1.93,0,0,0-.72-1.64,3.41,3.41,0,0,0-2.13-.55h-1.8Z"/><path class="cls-4" d="M265.08,107.68a3.4,3.4,0,0,1,1.22.21,3.1,3.1,0,0,1,.95.58,2.53,2.53,0,0,1,.64.82,2.48,2.48,0,0,1,.27,1l-.94.19h-.08a.42.42,0,0,1-.21-.06.37.37,0,0,1-.14-.21,2,2,0,0,0-.19-.46,1.74,1.74,0,0,0-.34-.43,1.81,1.81,0,0,0-.5-.33,1.76,1.76,0,0,0-.68-.12,2,2,0,0,0-.76.13,1.81,1.81,0,0,0-.59.38,1.7,1.7,0,0,0-.37.57,1.8,1.8,0,0,0-.13.71,2.1,2.1,0,0,0,.07.56,2.53,2.53,0,0,0,.22.55,3.9,3.9,0,0,0,.37.57,7.2,7.2,0,0,0,.55.61l3.5,3.56a6.56,6.56,0,0,0,.51-1.19,7.14,7.14,0,0,0,.26-1.25.41.41,0,0,1,.1-.26.32.32,0,0,1,.24-.09H270a6.52,6.52,0,0,1-.31,1.91,6.91,6.91,0,0,1-.86,1.77l2.55,2.58H269.9a1.09,1.09,0,0,1-.4-.06,1,1,0,0,1-.34-.25l-1.22-1.23a6,6,0,0,1-1.84,1.22,5.67,5.67,0,0,1-2.29.45,3.84,3.84,0,0,1-1.33-.23,3.6,3.6,0,0,1-1.16-.66,3.25,3.25,0,0,1-.83-1.07,3.33,3.33,0,0,1-.11-2.54,3.52,3.52,0,0,1,.55-1,4.21,4.21,0,0,1,.83-.8,5.52,5.52,0,0,1,1.06-.61,5.12,5.12,0,0,1-.76-1.28,3.28,3.28,0,0,1-.25-1.28,3,3,0,0,1,.23-1.16,2.56,2.56,0,0,1,.65-.94,3.05,3.05,0,0,1,1-.64A3.66,3.66,0,0,1,265.08,107.68Zm-3.37,8.93a2.12,2.12,0,0,0,.74,1.68,2.35,2.35,0,0,0,.75.44,2.93,2.93,0,0,0,.87.14,4,4,0,0,0,1.7-.34,4.66,4.66,0,0,0,1.34-.93L263.52,114a3.75,3.75,0,0,0-1.36,1.16A2.6,2.6,0,0,0,261.71,116.61Z"/><path class="cls-4" d="M286.16,120h-1.27a.57.57,0,0,1-.36-.11.69.69,0,0,1-.2-.28l-1.14-2.94h-5.45l-1.14,2.94a.73.73,0,0,1-.2.27.56.56,0,0,1-.36.12h-1.27l4.86-12.16h1.67Zm-8-4.51h4.54l-1.91-4.95a10.72,10.72,0,0,1-.36-1.15c-.06.24-.12.45-.18.65s-.12.36-.18.51Z"/><path class="cls-4" d="M298.23,113.89a6.81,6.81,0,0,1-.43,2.49,5.58,5.58,0,0,1-1.22,1.92,5.47,5.47,0,0,1-1.9,1.23,6.58,6.58,0,0,1-2.44.44h-4.55V107.81h4.55a6.58,6.58,0,0,1,2.44.44,5.35,5.35,0,0,1,1.9,1.24,5.58,5.58,0,0,1,1.22,1.92A6.8,6.8,0,0,1,298.23,113.89Zm-1.69,0a6.23,6.23,0,0,0-.3-2,4.37,4.37,0,0,0-.87-1.49,3.51,3.51,0,0,0-1.36-.93,4.58,4.58,0,0,0-1.77-.33h-2.89v9.5h2.89a4.58,4.58,0,0,0,1.77-.33,3.6,3.6,0,0,0,1.36-.92,4.47,4.47,0,0,0,.87-1.49A6.25,6.25,0,0,0,296.54,113.89Z"/><path class="cls-4" d="M306.66,116c.06.15.12.3.17.46L307,116a4.25,4.25,0,0,1,.21-.43l4.12-7.48a.49.49,0,0,1,.23-.24,1.37,1.37,0,0,1,.34,0h1.21V120h-1.44v-9.32l0-.41-4.17,7.6a.65.65,0,0,1-.59.38h-.24a.66.66,0,0,1-.59-.38l-4.26-7.63c0,.15,0,.29,0,.44s0,.27,0,.39V120h-1.44V107.81h1.21a1.37,1.37,0,0,1,.34,0,.49.49,0,0,1,.23.24l4.2,7.48A3.42,3.42,0,0,1,306.66,116Z"/><path class="cls-4" d="M318,120h-1.65V107.81H318Z"/><path class="cls-4" d="M322.46,107.87a.77.77,0,0,1,.24.22l7.05,9.16c0-.14,0-.29,0-.42s0-.28,0-.41v-8.61h1.45V120h-.84a.61.61,0,0,1-.32-.07.69.69,0,0,1-.26-.23l-7-9.15c0,.14,0,.28,0,.41s0,.26,0,.38V120h-1.44V107.81h.85A.67.67,0,0,1,322.46,107.87Z"/></svg>